<?xml version="1.0" encoding="utf-8"?>
<!-- Generator: Adobe Illustrator 18.1.1, SVG Export Plug-In . SVG Version: 6.00 Build 0)  -->
<svg version="1.1" id="Layer_1" xmlns="http://www.w3.org/2000/svg" xmlns:xlink="http://www.w3.org/1999/xlink" x="0px" y="0px"
	 viewBox="51.3 48.5 903.9 250.9" enable-background="new 51.3 48.5 903.9 250.9" xml:space="preserve">
<g>
	<path d="M316,101.4L316,101.4v0.9c9.1-2.7,19-4.7,29.3-5.3V74.1c0-1,0-2,0.1-2.9V48.8h-29.3v31.6v21H316z"/>
	<path d="M499.6,119.1V48.8H488v16.8c0,7.5,0.1,131.3-0.2,141.3c-0.5,16.7-2.8,32.1-11.9,45.7c-11,16.4-25.9,31.6-53.9,35.1
		c-29.9,3.8-50.3-12.7-60.9-28.2c-20.4-29.8-15.8-77.8-15.8-115.4v-2.3v-6c-6.3-1.9-14.7-3-25.5-1.9c0,0-1.4,0.2-3.8,0.6v70.6
		c0,0,0.4,25.1,3.8,34.7c6.4,23.2,19.1,39,41.4,50.1c0,0,33.7,18.1,82.6,4.5c6.3-1.8,27.5-10.8,41.3-32.8
		c12.1-19.3,14.7-43.4,14.7-59.1C499.6,188.1,499.9,139.6,499.6,119.1"/>
	<path d="M393.2,128.8c0,0-3.6-14.6-27-18c-4.6-0.7-9.2-1-13.7-1c-10.1,0-20,1.4-29.3,3.6c-2.5,0.6-4.9,1.3-7.3,2
		c-11.1,3.3-20.9,7.7-28.2,11.9c-26.5,15.2-45.5,30.6-45.5,30.6L193.2,49h-39l13,25l49.1,105.1l-10.4,8.5l-6.4,6.2
		c-25-9.2-62.8-29.2-106.6-2c-18.3,11.4-48.6,35.7-40.2,75.9s52.3,10.6,52.3,10.6s14.4-7.5,53.7-40.5l22.4-22c0,0,52.2,19,89.1,83.3
		l36,0.2l-62.7-138.8c0.5-0.4,1.1-0.9,1.7-1.4c0.2-0.2,0.5-0.3,0.7-0.5c4.1-3.3,10.4-8,18.3-13.1c7.9-5.2,17.4-10.8,28.1-15.9
		c15.8-7.2,27.7-8.6,27.7-8.6c1.2-0.1,2.4-0.2,3.5-0.3c13.8-0.9,23.2,1.9,29.3,5.1c6.8,3.6,9.5,7.6,9.5,7.6l5.1,6.3
		c0,0,3.3,7.3,15.3,5.7C397.5,143.5,393.2,128.8,393.2,128.8 M167.4,225.3c0,0-21.2,22.9-52.4,41.7c-31.1,18.8-41.3,0.3-41.3,0.3
		c-8.8-19.9,3.4-36,12.5-44.7c0.1-0.1,34.2-32.3,91.9-7.9L167.4,225.3z M202.2,194.8c3.8-3.6,9.2-8.3,15.1-13.6l12.4,28.9
		C229.1,209.6,220.2,201.9,202.2,194.8"/>
	<path d="M690.3,266l15.4,29.3l-39.2-0.1c-4.8-11-13.2-24.5-19.4-35.5c-17.9-31.6-42.5-71.4-85.9-74.6c-0.9,8.7-1,18.9-1,29.4v0.1
		v80.6h-34.3v-32.1c0.1-3.8,0.1-8,0-12.1v-69.2c0.1-16.6,0.1-35.1,0-52.2v-0.1L525.8,49c6.2-0.3,48.5-0.6,64.6-0.4
		c34.4,0.4,64.4,6.7,85,31.8c12.8,15.6,14.6,46.7,3.7,66c-14.1,24.9-37.9,36-46.8,37.3c13.4,14.8,19.8,18.1,43.4,56.2
		C680.9,248.1,685.4,257.4,690.3,266L690.3,266 M560.8,177.7c54-0.6,91.6-11.5,87.3-67.6c-2.3-29.8-22.3-49.3-51.4-52.1
		c-44.6-4.4-35.8,14.6-35.8,67.1L560.8,177.7L560.8,177.7z"/>
	<path d="M910.3,195l-2.1-4.8L844.5,48.8c-5.9,0-12.2,0-17.7,0l-13.9,31.5L773,171.4l-31.2,71.2c-1,2.4-2.2,5.3-3.5,8.4
		c-2.1,5.2-4.4,10.9-6.6,15.5l-12.2,28.7c4.6,0.1,8.3,0.1,13.8,0l38.9-88.5c1.6-2.3,3.7-3,8.8-3.7c29.8-4.1,67.2,14.3,90,33.7
		c23,19.5,33.7,33.5,49,57.8l0.1,0.5c12.9,0,22.7,0,35.1,0L910.3,195z M859,192.7c-20.7-11.9-45.7-19-70.6-19.4
		c10.9-27.2,14.5-34.4,17.9-42.3c5.3-12.2,15.9-31.3,18.8-42.6L878,204C871.3,201.3,865.8,196.6,859,192.7z"/>
</g>
</svg>
