<?xml version="1.0" encoding="utf-8"?>
<!-- Generator: Adobe Illustrator 18.1.1, SVG Export Plug-In . SVG Version: 6.00 Build 0)  -->
<svg version="1.1" id="Layer_1" xmlns="http://www.w3.org/2000/svg" xmlns:xlink="http://www.w3.org/1999/xlink" x="0px" y="0px"
	 viewBox="0 0 1000 400" enable-background="new 0 0 1000 400" xml:space="preserve">
<path fill="#FFFFFF" d="M316,101.4L316,101.4v0.9c9.1-2.7,19-4.7,29.3-5.3V74.1c0-1,0-2,0.1-2.9V48.8h-29.3v31.6v21H316z"/>
<path fill="#FFFFFF" d="M499.6,119.1V48.8H488v16.8c0,7.5,0.1,131.3-0.2,141.3c-0.5,16.7-2.8,32.1-11.9,45.7
	c-11,16.4-25.9,31.6-53.9,35.1c-29.9,3.8-50.3-12.7-60.9-28.2c-20.4-29.8-15.8-77.8-15.8-115.4v-2.3v-6c-6.3-1.9-14.7-3-25.5-1.9
	c0,0-1.4,0.2-3.8,0.6v70.6c0,0,0.4,25.1,3.8,34.7c6.4,23.2,19.1,39,41.4,50.1c0,0,33.7,18.1,82.6,4.5c6.3-1.8,27.5-10.8,41.3-32.8
	c12.1-19.3,14.7-43.4,14.7-59.1C499.6,188.1,499.9,139.6,499.6,119.1"/>
<path fill="#FFFFFF" d="M393.2,128.8c0,0-3.6-14.6-27-18c-4.6-0.7-9.2-1-13.7-1c-10.1,0-20,1.4-29.3,3.6c-2.5,0.6-4.9,1.3-7.3,2
	c-11.1,3.3-20.9,7.7-28.2,11.9c-26.5,15.2-45.5,30.6-45.5,30.6L193.2,49h-39l13,25l49.1,105.1l-10.4,8.5l-6.4,6.2
	c-25-9.2-62.8-29.2-106.6-2c-18.3,11.4-48.6,35.7-40.2,75.9s52.3,10.6,52.3,10.6s14.4-7.5,53.7-40.5l22.4-22c0,0,52.2,19,89.1,83.3
	l36,0.2l-62.7-138.8c0.5-0.4,1.1-0.9,1.7-1.4c0.2-0.2,0.5-0.3,0.7-0.5c4.1-3.3,10.4-8,18.3-13.1c7.9-5.2,17.4-10.8,28.1-15.9
	c15.8-7.2,27.7-8.6,27.7-8.6c1.2-0.1,2.4-0.2,3.5-0.3c13.8-0.9,23.2,1.9,29.3,5.1c6.8,3.6,9.5,7.6,9.5,7.6l5.1,6.3
	c0,0,3.3,7.3,15.3,5.7C397.5,143.5,393.2,128.8,393.2,128.8 M167.4,225.3c0,0-21.2,22.9-52.4,41.7c-31.1,18.8-41.3,0.3-41.3,0.3
	c-8.8-19.9,3.4-36,12.5-44.7c0.1-0.1,34.2-32.3,91.9-7.9L167.4,225.3z M202.2,194.8c3.8-3.6,9.2-8.3,15.1-13.6l12.4,28.9
	C229.1,209.6,220.2,201.9,202.2,194.8"/>
<path fill="#FFFFFF" d="M690.3,266l15.4,29.3l-39.2-0.1c-4.8-11-13.2-24.5-19.4-35.5c-17.9-31.6-42.5-71.4-85.9-74.6
	c-0.9,8.7-1,18.9-1,29.4v0.1v80.6h-34.3v-32.1c0.1-3.8,0.1-8,0-12.1v-69.2c0.1-16.6,0.1-35.1,0-52.2v-0.1L525.8,49
	c6.2-0.3,48.5-0.6,64.6-0.4c34.4,0.4,64.4,6.7,85,31.8c12.8,15.6,14.6,46.7,3.7,66c-14.1,24.9-37.9,36-46.8,37.3
	c13.4,14.8,19.8,18.1,43.4,56.2C680.9,248.1,685.4,257.4,690.3,266L690.3,266 M560.8,177.7c54-0.6,91.6-11.5,87.3-67.6
	c-2.3-29.8-22.3-49.3-51.4-52.1c-44.6-4.4-35.8,14.6-35.8,67.1L560.8,177.7L560.8,177.7z"/>
<path fill="#FFFFFF" d="M910.3,195l-2.1-4.8L844.5,48.8c-5.9,0-12.2,0-17.7,0l-13.9,31.5L773,171.4l-31.2,71.2
	c-1,2.4-2.2,5.3-3.5,8.4c-2.1,5.2-4.4,10.9-6.6,15.5l-12.2,28.7c4.6,0.1,8.3,0.1,13.8,0l38.9-88.5c1.6-2.3,3.7-3,8.8-3.7
	c29.8-4.1,67.2,14.3,90,33.7c23,19.5,33.7,33.5,49,57.8l0.1,0.5c12.9,0,22.7,0,35.1,0L910.3,195z M859,192.7
	c-20.7-11.9-45.7-19-70.6-19.4c10.9-27.2,14.5-34.4,17.9-42.3c5.3-12.2,15.9-31.3,18.8-42.6L878,204
	C871.3,201.3,865.8,196.6,859,192.7z"/>
<path fill="#FFFFFF" d="M52,322.4h9.5c5.1,0,10,2,10,7.8c0,3.9-2.4,6.5-6.2,7.3l7.3,12.1h-5.8l-6.3-11.5H57v11.5h-5V322.4z
	 M60.8,334.2c2.7,0,5.8-0.7,5.8-4c0-3-2.9-3.7-5.4-3.7h-4.4v7.7H60.8z"/>
<polygon fill="#FFFFFF" points="76.2,322.4 94.2,322.4 94.2,326.7 81,326.7 81,333.6 93.5,333.6 93.5,337.7 81,337.7 81,345.3 
	94.9,345.3 94.9,349.7 76.2,349.7 "/>
<path fill="#FFFFFF" d="M113.5,328.1c-1-1.3-3.1-2.3-5-2.3c-2.2,0-4.8,1.1-4.8,3.7c0,2.5,2.1,3.2,5.2,4.2c3.5,1.1,8,2.6,8,8
	c0,5.8-4.6,8.7-9.9,8.7c-3.5,0-7.2-1.3-9.3-3.9l3.5-3.2c1.3,1.8,3.8,3,6,3c2.3,0,4.9-1.1,4.9-4c0-2.8-2.8-3.7-6.3-4.7
	c-3.3-1-6.9-2.7-6.9-7.7c0-5.5,5-8,10-8c2.7,0,5.8,1,7.9,2.9L113.5,328.1z"/>
<rect x="121.7" y="322.4" fill="#FFFFFF" width="4.8" height="27.2"/>
<path fill="#FFFFFF" d="M132.6,322.4h9.7c7.1,0,15,3.4,15,13.6c0,9.5-7.9,13.6-15,13.6h-9.7V322.4z M141.5,345.4
	c5,0,10.6-2,10.6-9.4c0-7.8-5.6-9.5-10.6-9.5h-4v18.8h4V345.4z"/>
<polygon fill="#FFFFFF" points="162,322.4 180,322.4 180,326.7 166.8,326.7 166.8,333.6 179.3,333.6 179.3,337.7 166.8,337.7 
	166.8,345.3 180.7,345.3 180.7,349.7 162,349.7 "/>
<polygon fill="#FFFFFF" points="185.4,322.4 191.8,322.4 204.5,342.8 204.6,342.8 204.6,322.4 209.4,322.4 209.4,349.7 203.2,349.7 
	190.3,328.6 190.3,328.6 190.3,349.7 185.4,349.7 "/>
<path fill="#FFFFFF" d="M235,328.8c-1.4-2-4-2.8-6.2-2.8c-5.6,0-9.4,4.3-9.4,10c0,5.9,3.6,10,9.2,10c2.9,0,5.2-1.3,6.6-3.2l3.9,2.7
	c-2.4,3-5.9,4.8-10.5,4.8c-8.5,0-14.5-5.9-14.5-14.4c0-8.7,6.4-14.2,14.8-14.2c3.5,0,7.7,1.3,9.9,4.2L235,328.8z"/>
<rect x="242.2" y="322.4" fill="#FFFFFF" width="4.8" height="27.2"/>
<path fill="#FFFFFF" d="M261.5,322.4h4.2l11.7,27.2h-5.5l-2.5-6.2h-11.8l-2.5,6.2h-5.4L261.5,322.4z M267.7,339.3l-4.2-11.1
	l-4.3,11.1H267.7z"/>
<path fill="#FFFFFF" d="M298.3,322.4h4.2l11.7,27.2h-5.5l-2.5-6.2h-11.8l-2.5,6.2h-5.4L298.3,322.4z M304.5,339.3l-4.2-11.1
	l-4.3,11.1H304.5z"/>
<path fill="#FFFFFF" d="M330.8,328.1c-1-1.3-3.1-2.3-5-2.3c-2.2,0-4.8,1.1-4.8,3.7c0,2.5,2.1,3.2,5.2,4.2c3.5,1.1,8,2.6,8,8
	c0,5.8-4.6,8.7-9.9,8.7c-3.5,0-7.2-1.3-9.3-3.9l3.5-3.2c1.3,1.8,3.8,3,6,3c2.3,0,4.9-1.1,4.9-4c0-2.8-2.8-3.7-6.3-4.7
	c-3.3-1-6.9-2.7-6.9-7.7c0-5.5,5-8,10-8c2.7,0,5.8,1,7.9,2.9L330.8,328.1z"/>
<rect x="339" y="322.4" fill="#FFFFFF" width="4.8" height="27.2"/>
<path fill="#FFFFFF" d="M363.7,328.1c-1-1.3-3.1-2.3-5-2.3c-2.2,0-4.8,1.1-4.8,3.7c0,2.5,2.1,3.2,5.2,4.2c3.5,1.1,8,2.6,8,8
	c0,5.8-4.6,8.7-9.9,8.7c-3.5,0-7.2-1.3-9.3-3.9l3.5-3.2c1.3,1.8,3.8,3,6,3c2.3,0,4.9-1.1,4.9-4c0-2.8-2.8-3.7-6.3-4.7
	c-3.3-1-6.9-2.7-6.9-7.7c0-5.5,5-8,10-8c2.7,0,5.8,1,7.9,2.9L363.7,328.1z"/>
<polygon fill="#FFFFFF" points="377.4,326.7 369.1,326.7 369.1,322.4 390.6,322.4 390.6,326.7 382.2,326.7 382.2,349.7 377.4,349.7 
	"/>
<rect x="393.7" y="322.4" fill="#FFFFFF" width="4.8" height="27.2"/>
<path fill="#FFFFFF" d="M404.6,322.4h9.7c7.1,0,15,3.4,15,13.6c0,9.5-7.9,13.6-15,13.6h-9.7V322.4z M413.5,345.4
	c5,0,10.6-2,10.6-9.4c0-7.8-5.6-9.5-10.6-9.5h-4v18.8h4V345.4z"/>
<path fill="#FFFFFF" d="M442.5,322.4h4.2l11.7,27.2h-5.5l-2.5-6.2h-11.8l-2.5,6.2h-5.4L442.5,322.4z M448.7,339.3l-4.2-11.1
	l-4.3,11.1H448.7z"/>
<path fill="#FFFFFF" d="M470.7,322.4h8.9c6.2,0,10.3,2.2,10.3,7.9c0,6-4.8,8.1-10.6,8.1h-3.7v11.3h-4.8L470.7,322.4L470.7,322.4z
	 M479,334.3c3.2,0,6-0.8,6-4s-2.9-3.8-5.9-3.8h-3.5v7.8H479z"/>
<path fill="#FFFFFF" d="M502.7,322.4h4.2l11.7,27.2h-5.5l-2.5-6.2h-11.8l-2.5,6.2h-5.4L502.7,322.4z M508.9,339.3l-4.2-11.1
	l-4.3,11.1H508.9z"/>
<path fill="#FFFFFF" d="M521.3,322.4h9.5c5.1,0,10,2,10,7.8c0,3.9-2.4,6.5-6.2,7.3l7.3,12.1H536l-6.3-11.5h-3.5v11.5h-4.8v-27.2
	L521.3,322.4L521.3,322.4z M530.1,334.2c2.7,0,5.8-0.7,5.8-4c0-3-2.9-3.7-5.4-3.7h-4.4v7.7H530.1z"/>
<path fill="#FFFFFF" d="M554.1,322.4h4.2l11.7,27.2h-5.5l-2.5-6.2h-11.8l-2.5,6.2h-5.4L554.1,322.4z M560.2,339.3l-4.2-11.1
	l-4.3,11.1H560.2z"/>
<path fill="#FFFFFF" d="M590.8,322.4h4.2l11.7,27.2h-5.5l-2.5-6.2h-11.8l-2.5,6.2H579L590.8,322.4z M597,339.3l-4.2-11.1l-4.3,11.1
	H597z"/>
<path fill="#FFFFFF" d="M609.4,322.4h9.7c7.1,0,15,3.4,15,13.6c0,9.5-7.9,13.6-15,13.6h-9.7V322.4z M618.3,345.4
	c5,0,10.6-2,10.6-9.4c0-7.8-5.6-9.5-10.6-9.5h-4v18.8h4V345.4z"/>
<path fill="#FFFFFF" d="M660.5,339.7c0,6.6-4.7,10.7-11,10.7c-6.2,0-11-4.1-11-10.7v-17.2h4.8v17c0,3.2,1.5,6.5,6.1,6.5
	c4.7,0,6.1-3.4,6.1-6.5v-17h4.8v17.2H660.5z"/>
<polygon fill="#FFFFFF" points="666.3,322.4 671.1,322.4 671.1,345.3 682.7,345.3 682.7,349.7 666.3,349.7 "/>
<polygon fill="#FFFFFF" points="691.4,326.7 683.1,326.7 683.1,322.4 704.6,322.4 704.6,326.7 696.3,326.7 696.3,349.7 691.4,349.7 
	"/>
<path fill="#FFFFFF" d="M721,321.7c8.5,0,14.7,5.5,14.7,14.2c0,8.5-6.2,14.4-14.7,14.4c-8.4,0-14.6-5.9-14.6-14.4
	C706.4,327.2,712.6,321.7,721,321.7 M721.1,346c5.6,0,9.4-4.2,9.4-10c0-5.6-3.7-10-9.4-10c-5.6,0-9.3,4.3-9.3,10
	C711.7,341.8,715.5,346,721.1,346"/>
<path fill="#FFFFFF" d="M754.3,328.1c-1-1.3-3.1-2.3-5-2.3c-2.2,0-4.8,1.1-4.8,3.7c0,2.5,2.1,3.2,5.2,4.2c3.5,1.1,8,2.6,8,8
	c0,5.8-4.6,8.7-9.9,8.7c-3.5,0-7.2-1.3-9.3-3.9l3.5-3.2c1.3,1.8,3.8,3,6,3c2.3,0,4.9-1.1,4.9-4c0-2.8-2.8-3.7-6.3-4.7
	c-3.3-1-6.9-2.7-6.9-7.7c0-5.5,5-8,10-8c2.7,0,5.8,1,7.9,2.9L754.3,328.1z"/>
<polygon fill="#FFFFFF" points="772.1,322.4 779.7,322.4 786.7,341.8 786.8,341.8 793.8,322.4 801.5,322.4 801.5,349.7 796.7,349.7 
	796.7,327.8 796.6,327.8 788.3,349.7 784.9,349.7 776.8,327.8 776.7,327.8 776.7,349.7 772.1,349.7 "/>
<path fill="#FFFFFF" d="M816,322.4h4.2l11.7,27.2h-5.5l-2.5-6.2H812l-2.5,6.2h-5.4L816,322.4z M822.1,339.3l-4.2-11.1l-4.3,11.1
	H822.1z"/>
<polygon fill="#FFFFFF" points="841.2,337.8 831,322.4 836.9,322.4 843.7,333.9 850.6,322.4 856.3,322.4 846,337.8 846,349.7 
	841.2,349.7 "/>
<path fill="#FFFFFF" d="M871.8,321.7c8.5,0,14.7,5.5,14.7,14.2c0,8.5-6.2,14.4-14.7,14.4c-8.4,0-14.6-5.9-14.6-14.4
	C857.2,327.2,863.4,321.7,871.8,321.7 M871.8,346c5.6,0,9.4-4.2,9.4-10c0-5.6-3.7-10-9.4-10c-5.6,0-9.3,4.3-9.3,10
	C862.5,341.8,866.3,346,871.8,346"/>
<path fill="#FFFFFF" d="M891.2,322.4h9.5c5.1,0,10,2,10,7.8c0,3.9-2.4,6.5-6.2,7.3l7.3,12.1H906l-6.3-11.5H896v11.5h-4.8V322.4z
	 M900,334.2c2.7,0,5.8-0.7,5.8-4c0-3-2.9-3.7-5.4-3.7H896v7.7H900z"/>
<polygon fill="#FFFFFF" points="915.4,322.4 933.4,322.4 933.4,326.7 920.2,326.7 920.2,333.6 932.7,333.6 932.7,337.7 920.2,337.7 
	920.2,345.3 934.1,345.3 934.1,349.7 915.4,349.7 "/>
<path fill="#FFFFFF" d="M952.7,328.1c-1-1.3-3.1-2.3-5-2.3c-2.2,0-4.8,1.1-4.8,3.7c0,2.5,2.1,3.2,5.2,4.2c3.5,1.1,8,2.6,8,8
	c0,5.8-4.6,8.7-9.9,8.7c-3.5,0-7.2-1.3-9.3-3.9l3.5-3.2c1.3,1.8,3.8,3,6,3c2.3,0,4.9-1.1,4.9-4c0-2.8-2.8-3.7-6.3-4.7
	c-3.3-1-6.9-2.7-6.9-7.7c0-5.5,5-8,10-8c2.7,0,5.8,1,7.9,2.9L952.7,328.1z"/>
</svg>
